<?xml version="1.0" encoding="iso-8859-1"?>
<!-- Generator: Adobe Illustrator 19.0.0, SVG Export Plug-In . SVG Version: 6.00 Build 0)  -->
<svg version="1.1" id="Capa_1" xmlns="http://www.w3.org/2000/svg" xmlns:xlink="http://www.w3.org/1999/xlink" x="0px" y="0px"
	 viewBox="0 0 480 480" style="enable-background:new 0 0 480 480;" xml:space="preserve">
<g>
	<g>
		<path d="M440,464V152c0-4.418-3.582-8-8-8h-96c-4.418,0-8,3.582-8,8v312h-16V232c0-4.418-3.582-8-8-8h-96c-4.418,0-8,3.582-8,8
			v232h-16V312c0-4.418-3.582-8-8-8H80c-4.418,0-8,3.582-8,8v152H40V0H24v16H0v16h24v96H0v16h24v96H0v16h24v96H0v16h24v104
			c0,4.418,3.582,8,8,8h448v-16H440z M168,464H88V320h80V464z M296,464h-80V240h80V464z M424,464h-80V160h80V464z"/>
	</g>
</g>
<g>
	<g>
		<rect x="88" y="32" width="16" height="16"/>
	</g>
</g>
<g>
	<g>
		<rect x="120" y="32" width="96" height="16"/>
	</g>
</g>
<g>
	<g>
		<rect x="88" y="64" width="128" height="16"/>
	</g>
</g>
<g>
	<g>
		<rect x="88" y="96" width="128" height="16"/>
	</g>
</g>
<g>
	<g>
		<path d="M384.273,63.729c-13.33-0.075-24.197,10.67-24.272,23.999c-0.01,1.833,0.188,3.66,0.591,5.448l-89.736,56.12
			c-4.204-3.406-9.445-5.275-14.856-5.296c-13.193-0.062-23.938,10.582-24,23.775c-0.009,1.817,0.19,3.629,0.592,5.401
			l-89.736,56.12c-4.204-3.406-9.445-5.275-14.856-5.296c-13.33-0.075-24.197,10.67-24.272,23.999s10.67,24.197,23.999,24.272
			c13.33,0.075,24.197-10.67,24.272-23.999c0.01-1.833-0.188-3.66-0.591-5.448l89.736-56.12c4.204,3.406,9.445,5.275,14.856,5.296
			c13.193,0.062,23.938-10.582,24-23.775c0.009-1.817-0.19-3.629-0.592-5.401l89.736-56.12c4.204,3.406,9.445,5.275,14.856,5.296
			c13.33,0.075,24.197-10.67,24.272-23.999C408.347,74.671,397.602,63.804,384.273,63.729z M128,256c-4.418,0-8-3.582-8-8
			s3.582-8,8-8s8,3.582,8,8S132.418,256,128,256z M256,176c-4.418,0-8-3.582-8-8s3.582-8,8-8s8,3.582,8,8S260.418,176,256,176z
			 M384,96c-4.418,0-8-3.582-8-8s3.582-8,8-8s8,3.582,8,8S388.418,96,384,96z"/>
	</g>
</g>
<g>
</g>
<g>
</g>
<g>
</g>
<g>
</g>
<g>
</g>
<g>
</g>
<g>
</g>
<g>
</g>
<g>
</g>
<g>
</g>
<g>
</g>
<g>
</g>
<g>
</g>
<g>
</g>
<g>
</g>
</svg>
