<svg xmlns="http://www.w3.org/2000/svg" xmlns:xlink="http://www.w3.org/1999/xlink" width="144.292" height="156.869" viewBox="0 0 144.292 156.869">
  <defs>
    <linearGradient id="linear-gradient" x1="0.87" y1="0.316" x2="0.13" y2="0.684" gradientUnits="objectBoundingBox">
      <stop offset="0" stop-color="#95abc2"/>
      <stop offset="1" stop-color="#fff"/>
    </linearGradient>
    <clipPath id="clip-path">
      <path id="vectorMask" d="M458.458,212.063h5.312v5.3a4.7,4.7,0,0,1-4.7,4.705h-5.312v-5.3a4.7,4.7,0,0,1,4.7-4.705Z" transform="translate(-453.754 -212.063)" fill="none"/>
    </clipPath>
  </defs>
  <g id="zero_page_icon" transform="translate(-126.4 -181.841)">
    <path id="Rectangle_27_Copy_2" data-name="Rectangle 27 Copy 2" d="M351.354,378.626,410.939,395v57.29l-59.585-25.67Z" transform="translate(-159.633 -139.359)" fill="#8e99a3"/>
    <path id="Rectangle_27_Copy_3" data-name="Rectangle 27 Copy 3" d="M232.666,378.82,184,392.419v60.2l48.666-26.056Z" transform="translate(-40.876 -139.496)" fill="#a0aab5"/>
    <g id="fly" transform="translate(174.945 182.233)">
      <path id="path_copy" data-name="path copy" d="M47.943,106.711h0c-.969-.283-2.06-.564-3.324-.855l.391-1.7c1.3.3,2.423.588,3.423.881l-.489,1.672Zm-7.28-1.7h0l-.677-.137-.125-.026-.051-.01c-.83-.165-2.085-.42-2.564-.518l.349-1.707c.49.1,1.8.364,2.58.522l.092.019.742.15-.347,1.707Zm-7.41-1.545h0c-1.224-.278-2.34-.55-3.413-.831l.442-1.685c1.048.275,2.142.542,3.357.817l-.386,1.7Zm-7.371-1.983h0c-1.154-.373-2.278-.773-3.332-1.187l.636-1.622c1.022.4,2.109.788,3.232,1.154l-.535,1.658ZM18.76,98.62h0c-1.081-.538-2.13-1.118-3.116-1.724l.912-1.483c.939.577,1.942,1.132,2.981,1.648l-.776,1.56Zm-6.543-4.11h0a33.373,33.373,0,0,1-2.687-2.363L10.75,90.9A31.63,31.63,0,0,0,13.3,93.141l-1.079,1.368Zm-5.48-5.476h0a33.808,33.808,0,0,1-2.06-2.924l1.475-.927a32.073,32.073,0,0,0,1.953,2.773l-1.368,1.08ZM2.665,82.442h0c-.44-.911-.847-1.867-1.223-2.841-.054-.14-.11-.288-.165-.439l1.638-.592c.047.129.1.265.152.405.358.931.752,1.846,1.17,2.719l-1.572.75ZM.232,75.053h0a21.045,21.045,0,0,1-.227-3.626l1.742.042A19.3,19.3,0,0,0,1.955,74.8l-1.722.259ZM2.225,67.57h0L.524,67.2a24.614,24.614,0,0,1,1.04-3.461l1.628.62a22.926,22.926,0,0,0-.967,3.214ZM23.32,62.037h0L23.175,60.3a14.7,14.7,0,0,0,3.228-.634l.528,1.66A16.443,16.443,0,0,1,23.32,62.037Zm-4.24-.153h0a20.9,20.9,0,0,1-3.543-.836l.549-1.654a19.163,19.163,0,0,0,3.244.766ZM4.868,60.813h0l-1.516-.858A31.576,31.576,0,0,1,5.294,56.94L6.7,57.965a29.782,29.782,0,0,0-1.835,2.848Zm25.963-1.377h0L29.843,58a10.328,10.328,0,0,0,2.345-2.2l1.383,1.06a12.055,12.055,0,0,1-2.737,2.572Zm-19.166-.16h0A18.848,18.848,0,0,1,8.729,57.1L9.9,55.812a17.106,17.106,0,0,0,2.665,1.973l-.9,1.494ZM9.239,54.9h0L7.964,53.71c.805-.864,1.666-1.7,2.559-2.489l1.154,1.307c-.85.749-1.669,1.547-2.437,2.369Zm-3.329-1h0a19.4,19.4,0,0,1-1.8-3.176l1.59-.712A17.634,17.634,0,0,0,7.334,52.9Zm29.46-1.113h0l-1.722-.26a5.583,5.583,0,0,0-.363-3l1.612-.659a7.3,7.3,0,0,1,.474,3.921Zm-20.583-2.7h0l-1-1.43a33.938,33.938,0,0,1,3.038-1.889l.839,1.527a32.026,32.026,0,0,0-2.884,1.791Zm16.341-3.344h0a6.427,6.427,0,0,0-2.863-1.116l.26-1.723a8.153,8.153,0,0,1,3.626,1.43l-1.026,1.408Zm-9.873-.1h0l-.6-1.635a21.1,21.1,0,0,1,3.5-.975l.311,1.714a19.37,19.37,0,0,0-3.214.895ZM2.788,46.63h0a21.16,21.16,0,0,1-.433-3.608L4.1,42.963a19.411,19.411,0,0,0,.4,3.31l-1.7.358Zm1.542-7.508h0l-1.721-.266c.058-.371.125-.747.2-1.117.165-.8.369-1.607.611-2.4l1.667.506c-.225.742-.417,1.5-.571,2.247-.071.346-.133.694-.185,1.032ZM6.5,32.155h0l-1.58-.735A34.836,34.836,0,0,1,6.6,28.264l1.5.893a33.062,33.062,0,0,0-1.593,3Zm3.816-6.312h0L8.917,24.8c.686-.92,1.434-1.85,2.225-2.765l1.318,1.14c-.762.882-1.483,1.778-2.142,2.665Zm4.862-5.584h0l-1.236-1.231c.806-.807,1.667-1.624,2.56-2.429l1.167,1.295c-.866.781-1.7,1.577-2.493,2.367Zm5.567-4.989h0l-1.1-1.354c.891-.721,1.826-1.448,2.78-2.16l1.042,1.4c-.938.7-1.855,1.412-2.726,2.117Zm6-4.458h0l-.984-1.437c.945-.648,1.931-1.3,2.929-1.937l.939,1.468c-.981.628-1.951,1.269-2.884,1.907Zm6.317-4.024h0l-.887-1.5c.989-.589,2.014-1.178,3.038-1.752l.85,1.52c-1.014.567-2.023,1.149-3,1.73Zm6.558-3.657h0l-.808-1.543C39.832,1.06,40.853.539,41.938,0l.776,1.56c-1.079.536-2.09,1.051-3.088,1.574Z" transform="translate(0 20.717)" fill="url(#linear-gradient)"/>
      <g id="bee" transform="translate(36.791 0)">
        <path id="Oval" d="M432.787,194.731c2.264-2.264-.338-8.538-2.6-10.8a5.8,5.8,0,1,0-8.2,8.2C424.248,194.4,430.522,197,432.787,194.731Z" transform="translate(-420.289 -182.233)" fill="#ced8e5" opacity="0.4"/>
        <path id="Oval_Copy" data-name="Oval Copy" d="M474.849,234.9c-2.264,2.264.338,8.538,2.6,10.8a5.8,5.8,0,1,0,8.2-8.2C483.39,235.241,477.113,232.638,474.849,234.9Z" transform="translate(-458.384 -218.984)" fill="#ced8e5" opacity="0.4"/>
        <g id="Rectangle_4" data-name="Rectangle 4" transform="translate(9.72 8.667)">
          <path id="Mask" d="M458.458,212.063h5.312v5.3a4.7,4.7,0,0,1-4.7,4.705h-5.312v-5.3a4.7,4.7,0,0,1,4.7-4.705Z" transform="translate(-453.754 -212.063)" fill="#a8b7c5"/>
          <g id="Mask_by_Mask" data-name="Mask by Mask" transform="translate(0 0)" clip-path="url(#clip-path)">
            <g id="Mask_by_Mask-2" data-name="Mask by Mask" transform="translate(-1.754 -0.969)">
              <path id="Rectangle_4-2" data-name="Rectangle 4" d="M447.715,218.907l1.118-1.118,8.187,8.187-1.118,1.118Z" transform="translate(-447.715 -215.157)" fill="#dde5f2"/>
              <path id="Rectangle_4_Copy" data-name="Rectangle 4 Copy" d="M458.607,209.845l1.118-1.118,8.187,8.187-1.118,1.118Z" transform="translate(-455.444 -208.727)" fill="#dde5f2"/>
            </g>
          </g>
        </g>
        <line id="Path_7_Copy" data-name="Path 7 Copy" y1="0.915" x2="3.847" transform="translate(25.115 5.245)" fill="none" stroke="#8696c5" stroke-linecap="round" stroke-width="1.8"/>
        <line id="Path_7" data-name="Path 7" y1="3.81" x2="1.481" transform="translate(23.533 0.773)" fill="none" stroke="#8696c5" stroke-linecap="round" stroke-width="1.8"/>
        <ellipse id="Oval_4" data-name="Oval 4" cx="4.217" cy="4.211" rx="4.217" ry="4.211" transform="translate(17.101 3.404)" fill="#8b9aa8"/>
      </g>
    </g>
    <path id="Rectangle_27" data-name="Rectangle 27" d="M184,426.023l59.585,18.908V511.7L184,486.031Z" transform="translate(-40.876 -172.992)" fill="#dae2ec"/>
    <path id="Rectangle_27_Copy" data-name="Rectangle 27 Copy" d="M436.023,434.755,386.28,451.127V517.9l49.743-25.67Z" transform="translate(-184.417 -179.188)" fill="#c5d0d9"/>
    <path id="Path_17_Copy" data-name="Path 17 Copy" d="M436.309,434.619l19.229,25.735-51.032,20.11L386.881,450.9Z" transform="translate(-184.844 -179.092)" fill="#dae2ec"/>
    <path id="Path_17" data-name="Path 17" d="M143.052,425.545,126.4,451.527l58.7,22.5,17.15-29.595Z" transform="translate(0 -172.652)" fill="#c5d0d9"/>
  </g>
</svg>
